<svg id="Layer_1" data-name="Layer 1" xmlns="http://www.w3.org/2000/svg" viewBox="0 0 706.84 706.85"><defs><style>.cls-1{font-size:76px;fill:#58595b;font-family:Univers-Light, Univers;}</style></defs><title>time</title><text class="cls-1" transform="translate(334.36 65.73) rotate(-0.93)">c</text><text class="cls-1" transform="matrix(0.99, 0.13, -0.13, 0.99, 370.73, 65.16)">o</text><text class="cls-1" transform="matrix(0.95, 0.31, -0.31, 0.95, 410.69, 69.09)">m</text><text class="cls-1" transform="translate(472.43 90.23) rotate(28.58)">e</text><text class="cls-1" transform="translate(508.1 110.21) rotate(34.61)"> </text><text class="cls-1" transform="translate(524.77 120.97) rotate(40.62)">b</text><text class="cls-1" transform="matrix(0.67, 0.75, -0.75, 0.67, 555.55, 147.4)">a</text><text class="cls-1" transform="translate(579.91 174.5) rotate(55.41)">c</text><text class="cls-1" transform="translate(598.75 201.3) rotate(61.92)">k</text><text class="cls-1" transform="translate(615.73 233.88) rotate(67.58)"> </text><text class="cls-1" transform="matrix(0.29, 0.96, -0.96, 0.29, 623.76, 252.08)">a</text><text class="cls-1" transform="matrix(0.19, 0.98, -0.98, 0.19, 634.06, 287.24)">t</text><text class="cls-1" transform="matrix(0.11, 0.99, -0.99, 0.11, 638.53, 311.13)"> </text><text class="cls-1" transform="translate(641.09 330.79) rotate(89.07)">a</text><text class="cls-1" transform="translate(641.27 367.63) rotate(94.86)"> </text><text class="cls-1" transform="translate(640.22 387.42) rotate(100.89)">d</text><text class="cls-1" transform="translate(631.92 427.54) rotate(106.56)">i</text><text class="cls-1" transform="matrix(-0.35, 0.94, -0.94, -0.35, 627.54, 442.9)">f</text><text class="cls-1" transform="matrix(-0.42, 0.91, -0.91, -0.42, 620.32, 462.57)">f</text><text class="cls-1" transform="matrix(-0.51, 0.86, -0.86, -0.51, 612.11, 481.91)">e</text><text class="cls-1" transform="translate(590.96 516.81) rotate(127.08)">r</text><text class="cls-1" transform="matrix(-0.69, 0.73, -0.73, -0.69, 576.97, 536.23)">e</text><text class="cls-1" transform="translate(549.18 565.72) rotate(141.48)">n</text><text class="cls-1" transform="translate(517.01 590.82) rotate(147.89)">t</text><text class="cls-1" transform="translate(496.4 603.7) rotate(152.31)"> </text><text class="cls-1" transform="translate(478.61 613.18) rotate(156.76)">t</text><text class="cls-1" transform="matrix(-0.94, 0.33, -0.33, -0.94, 456.15, 622.69)">i</text><text class="cls-1" transform="translate(442.41 629.5) rotate(168.88)">m</text><text class="cls-1" transform="translate(378.12 641.06) rotate(179.07)">e</text><text class="cls-1" transform="translate(337.28 641.17) rotate(-174.76)"> </text><text class="cls-1" transform="translate(317.19 639.45) rotate(-170.33)">t</text><text class="cls-1" transform="translate(293.54 635.99) rotate(-163.87)">o</text><text class="cls-1" transform="translate(254.41 624.16) rotate(-157.79)"> </text><text class="cls-1" transform="matrix(-0.88, -0.47, 0.47, -0.88, 235.82, 617.09)">s</text><text class="cls-1" transform="translate(203.57 600.32) rotate(-144.5)">e</text><text class="cls-1" transform="translate(170.51 576.89) rotate(-136.49)">e</text><text class="cls-1" transform="matrix(-0.65, -0.76, 0.76, -0.65, 141.17, 548.38)"> </text><text class="cls-1" transform="translate(127.9 533.56) rotate(-124.89)">a</text><text class="cls-1" transform="translate(107.17 503.23) rotate(-119.27)"> </text><text class="cls-1" transform="translate(96.94 486.26) rotate(-113.21)">n</text><text class="cls-1" transform="translate(80.86 449.08) rotate(-105.11)">e</text><text class="cls-1" transform="translate(69.61 412) rotate(-95.32)">w</text><text class="cls-1" transform="translate(65.24 350.65) rotate(-87.39)"> </text><text class="cls-1" transform="translate(65.67 330.75) rotate(-81.79)">a</text><text class="cls-1" transform="translate(71.16 294.52) rotate(-75.74)">f</text><text class="cls-1" transform="translate(76.17 274.18) rotate(-71.54)">f</text><text class="cls-1" transform="translate(84 251.09) rotate(-67.5)">i</text><text class="cls-1" transform="translate(89.95 236.26) rotate(-63.47)">r</text><text class="cls-1" transform="matrix(0.58, -0.82, 0.82, 0.58, 98.87, 214.43)">m</text><text class="cls-1" transform="matrix(0.71, -0.7, 0.7, 0.71, 137.59, 161.79)">a</text><text class="cls-1" transform="translate(163.86 136.23) rotate(-38.63)">t</text><text class="cls-1" transform="translate(183 121.09) rotate(-34.63)">i</text><text class="cls-1" transform="matrix(0.87, -0.48, 0.48, 0.87, 195.49, 111.62)">o</text><text class="cls-1" transform="matrix(0.93, -0.36, 0.36, 0.93, 230.85, 91.87)">n</text></svg>