<svg id="Layer_1" data-name="Layer 1" xmlns="http://www.w3.org/2000/svg" viewBox="0 0 693.07 693.08"><defs><style>.cls-1{font-size:68px;fill:#f7941d;font-family:Univers-Light, Univers;}</style></defs><title>remember</title><text class="cls-1" transform="translate(327.87 58.91) rotate(-1.43)">r</text><text class="cls-1" transform="translate(349.35 57.94) rotate(4.25)">e</text><text class="cls-1" transform="translate(385.41 59.54) rotate(13.66)">m</text><text class="cls-1" transform="translate(442.11 74.11) rotate(23.11)">e</text><text class="cls-1" transform="translate(475.68 87.28) rotate(32.52)">m</text><text class="cls-1" transform="translate(524.66 119.43) rotate(41.88)">b</text><text class="cls-1" transform="translate(551.81 143.66) rotate(49.07)">e</text><text class="cls-1" transform="matrix(0.58, 0.82, -0.82, 0.58, 575.56, 171.54)">r</text><text class="cls-1" transform="matrix(0.52, 0.86, -0.86, 0.52, 588.11, 189.4)"> </text><text class="cls-1" transform="translate(597.54 204.92) rotate(62.4)"> </text><text class="cls-1" transform="translate(606.81 219.87) rotate(69.66)">w</text><text class="cls-1" transform="translate(625.3 271.5) rotate(78.75)">h</text><text class="cls-1" transform="translate(632.48 307.15) rotate(85.97)">e</text><text class="cls-1" transform="matrix(-0.05, 1, -1, -0.05, 635.13, 343.43)">n</text><text class="cls-1" transform="translate(632.76 380.07) rotate(98.49)"> </text><text class="cls-1" transform="translate(630.1 398.02) rotate(102.11)"> </text><text class="cls-1" transform="translate(626.72 415.6) rotate(107.21)">y</text><text class="cls-1" transform="translate(617.71 445.6) rotate(113.85)">o</text><text class="cls-1" transform="translate(603.08 478.9) rotate(121.1)">u</text><text class="cls-1" transform="translate(583.78 510.13) rotate(126.51)"> </text><text class="cls-1" transform="translate(572.99 524.75) rotate(130.11)"> </text><text class="cls-1" transform="matrix(-0.73, 0.68, -0.68, -0.73, 562.66, 538.98)">w</text><text class="cls-1" transform="translate(522.87 574.89) rotate(145.65)">a</text><text class="cls-1" transform="translate(496.04 593.47) rotate(152.51)">n</text><text class="cls-1" transform="translate(463.4 610.09) rotate(158.32)">t</text><text class="cls-1" transform="translate(443.59 618.44) rotate(164.14)">e</text><text class="cls-1" transform="translate(408.64 628.46) rotate(171.4)">d</text><text class="cls-1" transform="translate(372.29 633.56) rotate(176.8)"> </text><text class="cls-1" transform="translate(354.18 634.69) rotate(-179.07)"> </text><text class="cls-1" transform="translate(336.58 635.75) rotate(-172.48)">w</text><text class="cls-1" transform="matrix(-0.96, -0.29, 0.29, -0.96, 282.29, 627.99)">h</text><text class="cls-1" transform="translate(247.4 617.56) rotate(-156.5)">a</text><text class="cls-1" transform="translate(217.33 604.25) rotate(-151.07)">t</text><text class="cls-1" transform="matrix(-0.84, -0.54, 0.54, -0.84, 198.24, 593.65)"> </text><text class="cls-1" transform="matrix(-0.8, -0.59, 0.59, -0.8, 182.96, 583.8)"> </text><text class="cls-1" transform="translate(168.37 573.46) rotate(-138.46)">y</text><text class="cls-1" transform="matrix(-0.67, -0.74, 0.74, -0.67, 144.73, 552.87)">o</text><text class="cls-1" transform="translate(120.36 525.85) rotate(-124.7)">u</text><text class="cls-1" transform="translate(99.8 495.46) rotate(-119.29)"> </text><text class="cls-1" transform="matrix(-0.43, -0.9, 0.9, -0.43, 90.88, 479.62)"> </text><text class="cls-1" transform="translate(82.8 463.67) rotate(-110.58)">c</text><text class="cls-1" transform="translate(71.15 433.21) rotate(-103.67)">u</text><text class="cls-1" transform="matrix(-0.14, -0.99, 0.99, -0.14, 62.81, 397.53)">r</text><text class="cls-1" transform="matrix(-0.06, -1, 1, -0.06, 59.86, 376.62)">r</text><text class="cls-1" transform="translate(58.05 355.16) rotate(-87.99)">e</text><text class="cls-1" transform="translate(59.23 318.83) rotate(-80.81)">n</text><text class="cls-1" transform="matrix(0.26, -0.97, 0.97, 0.26, 65.4, 282.73)">t</text><text class="cls-1" transform="translate(71.16 261.58) rotate(-71.36)">l</text><text class="cls-1" transform="translate(75.27 248.05) rotate(-66.64)">y</text><text class="cls-1" transform="translate(88.61 217.91) rotate(-61.56)"> </text><text class="cls-1" transform="translate(97.25 201.91) rotate(-57.94)"> </text><text class="cls-1" transform="translate(106.29 186.53) rotate(-52.54)">h</text><text class="cls-1" transform="matrix(0.7, -0.72, 0.72, 0.7, 128.47, 157.63)">a</text><text class="cls-1" transform="translate(150.31 135.05) rotate(-39.51)">v</text><text class="cls-1" transform="matrix(0.84, -0.54, 0.54, 0.84, 174.32, 114.91)">e</text><text class="cls-1" transform="translate(205.32 95.3) rotate(-27.51)"> </text></svg>